<svg xmlns="http://www.w3.org/2000/svg" viewBox="0 0 384 512" fill="#d24726">
  <path d="M64 0C28.7 0 0 28.7 0 64V448c0 35.3 28.7 64 64 64H320c35.3 0 64-28.7 64-64V160H256c-17.7 0-32-14.3-32-32V0H64zM256 0V128H384L256 0zM136.1 258.4c-3.3 4.4-3.3 10.4 0 14.8l58.6 77.9c4.8 6.4 1.5 15.8-6.2 17.7l-37.4 9.4c-9.7 2.4-18-7-14.6-16.6l15.3-43.2c3.6-10.2-9.1-18.6-16.4-10.8L94.7 350.4c-6.2 6.7-16.8 1.5-16.8-8.3V269.9c0-9.8 10.6-15 16.8-8.3l40.8 43.2c7.3 7.8 20 -.6 16.4-10.8l-15.3-43.2c-3.4-9.6 5-19 14.6-16.6l37.4 9.4c7.7 1.9 11 11.3 6.2 17.7L136.1 258.4z"/>
</svg>