<svg width="300" height="300" viewBox="0 0 300 300" fill="none" xmlns="http://www.w3.org/2000/svg">
  <path d="M150 260C210.751 260 260 210.751 260 150C260 89.249 210.751 40 150 40C89.249 40 40 89.249 40 150C40 210.751 89.249 260 150 260Z" fill="#F3F4F6"/>
  <path d="M110 80V220C110 226.627 115.373 232 122 232H200C206.627 232 212 226.627 212 220V108L184 80H122C115.373 80 110 85.373 110 92V92" stroke="#4361EE" stroke-width="6" stroke-linecap="round"/>
  <path d="M184 80V108H212" stroke="#4361EE" stroke-width="6" stroke-linecap="round" stroke-linejoin="round"/>
  <path d="M142 140H180" stroke="#4361EE" stroke-width="6" stroke-linecap="round"/>
  <path d="M142 164H180" stroke="#4361EE" stroke-width="6" stroke-linecap="round"/>
  <path d="M142 188H166" stroke="#4361EE" stroke-width="6" stroke-linecap="round"/>
  <path d="M75.7574 143.757L98.2426 166.243C98.6332 166.633 99.2664 166.633 99.657 166.243L124.243 141.657" stroke="#10B981" stroke-width="6" stroke-linecap="round" stroke-linejoin="round"/>
</svg>