<svg width="300" height="300" viewBox="0 0 300 300" fill="none" xmlns="http://www.w3.org/2000/svg">
  <path d="M150 260C210.751 260 260 210.751 260 150C260 89.249 210.751 40 150 40C89.249 40 40 89.249 40 150C40 210.751 89.249 260 150 260Z" fill="#F3F4F6"/>
  <path d="M110 130V200C110 206.627 115.373 212 122 212H178C184.627 212 190 206.627 190 200V130" stroke="#4361EE" stroke-width="6" stroke-linecap="round" stroke-linejoin="round"/>
  <path d="M95 130H205" stroke="#4361EE" stroke-width="6" stroke-linecap="round" stroke-linejoin="round"/>
  <path d="M140 170L160 170" stroke="#4361EE" stroke-width="6" stroke-linecap="round" stroke-linejoin="round"/>
  <path d="M130 150C130 150 120 110 150 110C180 110 170 150 170 150" stroke="#4361EE" stroke-width="6" stroke-linecap="round" stroke-linejoin="round"/>
  <path d="M150 85C163.807 85 175 73.8071 175 60C175 57.2386 174.486 54.6127 173.536 52.2168" stroke="#10B981" stroke-width="6" stroke-linecap="round" stroke-linejoin="round"/>
  <path d="M126.464 52.2168C125.514 54.6127 125 57.2386 125 60C125 73.8071 136.193 85 150 85" stroke="#10B981" stroke-width="6" stroke-linecap="round" stroke-linejoin="round"/>
</svg>