<svg width="300" height="300" viewBox="0 0 300 300" fill="none" xmlns="http://www.w3.org/2000/svg">
  <path d="M150 260C210.751 260 260 210.751 260 150C260 89.249 210.751 40 150 40C89.249 40 40 89.249 40 150C40 210.751 89.249 260 150 260Z" fill="#F3F4F6"/>
  <path d="M115 110H185C188.866 110 192 113.134 192 117V183C192 186.866 188.866 190 185 190H115C111.134 190 108 186.866 108 183V117C108 113.134 111.134 110 115 110Z" stroke="#4361EE" stroke-width="6" stroke-linecap="round"/>
  <path d="M108 135H192" stroke="#4361EE" stroke-width="6" stroke-linecap="round"/>
  <path d="M130 123H130.1" stroke="#4361EE" stroke-width="6" stroke-linecap="round"/>
  <path d="M150 123H150.1" stroke="#4361EE" stroke-width="6" stroke-linecap="round"/>
  <path d="M170 123H170.1" stroke="#4361EE" stroke-width="6" stroke-linecap="round"/>
  <path d="M130 150V175" stroke="#4361EE" stroke-width="6" stroke-linecap="round"/>
  <path d="M150 150V175" stroke="#4361EE" stroke-width="6" stroke-linecap="round"/>
  <path d="M170 150V175" stroke="#4361EE" stroke-width="6" stroke-linecap="round"/>
  <path d="M85 205H215" stroke="#10B981" stroke-width="6" stroke-linecap="round"/>
</svg>